<?xml version="1.0" encoding="utf-8"?>
<!-- Generator: Adobe Illustrator 22.0.0, SVG Export Plug-In . SVG Version: 6.00 Build 0)  -->
<svg version="1.1" id="svg39820" xmlns:svg="http://www.w3.org/2000/svg"
	 xmlns="http://www.w3.org/2000/svg" xmlns:xlink="http://www.w3.org/1999/xlink" x="0px" y="0px" viewBox="0 0 200 58.2"
	 style="enable-background:new 0 0 200 58.2;" xml:space="preserve">
<path id="path37627" d="M20,30.3h-7.2l3.8-12.4L20,30.3z M9.5,42.8l2.3-7.5H21l2.3,7.5h7.6l-8-28.6c-0.4-1.8-1.3-2.5-3.4-2.5H8.2
	v2.6h0.9c1.3,0,2.1,0.4,2.1,1.4c0,0.7,0,1.1-0.7,2.6L2.3,42.8"/>
<path id="path37629" d="M40.4,42.8V14c0-1.5-0.9-2.3-2.5-2.3H31v2.6h0.4c1.3,0,2.1,0.5,2.1,1.7v26.8"/>
<path id="path37631" d="M52.9,42.8V14c0-1.5-0.9-2.3-2.5-2.3h-6.9v2.6h0.4c1.3,0,2.1,0.5,2.1,1.7v26.8"/>
<path id="path37633" d="M65.7,14.4c0-2.1-1.5-3.3-4-3.3c-2.7,0-4,1.2-4,3.3s1.3,3.4,4,3.4C64.1,17.8,65.7,16.6,65.7,14.4 M65.4,42.8
	V21.8c0-1.4-0.9-2.3-2.3-2.3h-6.9V22h0.4c1.3,0,1.7,0.5,1.7,1.8v18.9"/>
<path id="path37635" d="M82,31.4v4.7c-1.3,1.3-2.9,2.1-4.2,2.1c-1.3,0-2.1-0.7-2.1-2.4c0-2,0.4-2.7,2.1-3.3
	C78.8,32.1,79.9,31.9,82,31.4 M72.1,25.9l0.7-0.2c1.7-0.8,2.9-1,4.2-1.2c0.7-0.1,1.5-0.2,2.1-0.2c2.3,0,2.9,0.8,2.9,2.8v0.5
	c-3.1,0.5-4,0.7-5.9,1.1c-0.9,0.2-1.7,0.5-2.7,0.9c-2.9,1.2-4.2,3.4-4.2,6.9c0,4.4,1.7,6.5,5.9,6.5c1.5,0,3.1-0.3,4.2-1.1
	c1.1-0.5,1.5-0.8,2.9-2.1v0.8c0,1.4,0.7,2.2,2.1,2.2H91v-2.4h-0.2c-1.3,0-2.1-0.7-2.1-1.8V27.1c0-6-2.1-7.9-7.8-7.9
	c-2.1,0-3.8,0.2-5.6,0.7c-1.7,0.4-2.7,0.8-4.7,1.7"/>
<path id="path37637" d="M101.4,42.8V27c1.5-1.4,2.7-2.1,4.2-2.1c1.5,0,2.1,0.7,2.1,3v14.8h6.9V26.9c0-3.3-0.4-4.7-1.3-5.9
	c-1.1-1.2-2.5-1.7-4.4-1.7c-2.7,0-4.7,1-7.8,3.7v-1.3c0-1.4-0.7-2.2-2.1-2.2h-6.7V22h0.2c1.3,0,2.1,0.5,2.1,1.8v18.9"/>
<path id="path37645" d="M136.1,38.4h-10.3l9.9-14v-4.8h-14.8c-1.7,0-2.5,0.8-2.5,2.4v4.2h2.5v-0.4c0-1.3,0.7-1.7,2.1-1.7h5.3
	l-10.1,14V43h17.9"/>
<path id="path37647" d="M175.7,41.5V15.2c0-2.2-0.9-2.8-2.9-2.8h-6.1v2.9h0.7c1.1,0,1.5,0.4,1.5,1.7v24.5H175.7z M179.3,41.5h6.5
	V21.7c0-2.1-0.9-2.8-2.9-2.8h-3.6V41.5z M165.4,41.5V18.9h-3.6c-2.1,0-2.9,0.8-2.9,2.8v19.9H165.4z M193.4,28.3
	c0,12.4-8.9,21.3-21.1,21.3s-21.1-9-21.1-21.3c0-12.4,8.9-21.3,21.1-21.3S193.4,15.9,193.4,28.3 M197.7,28.3
	c0-14.4-10.7-25.3-25.3-25.3c-14.3,0-25.3,10.9-25.3,25.3s11,25.3,25.3,25.3C186.9,53.6,197.7,42.7,197.7,28.3"/>
</svg>
