<?xml version="1.0" encoding="utf-8"?>
<!-- Generator: Adobe Illustrator 22.0.0, SVG Export Plug-In . SVG Version: 6.00 Build 0)  -->
<svg version="1.1" id="レイヤー_1" xmlns="http://www.w3.org/2000/svg" xmlns:xlink="http://www.w3.org/1999/xlink" x="0px"
	 y="0px" viewBox="0 0 144 38" style="enable-background:new 0 0 144 38;" xml:space="preserve">
<path d="M114.4,24.3c-1-0.3-1.3-0.8-1.4-1.8c-0.3-1.6-0.3-5.7,0-7.5c0.1-0.9,0.6-1.4,1.4-1.6c0.9-0.3,9-0.4,9.9,0
	c0.8,0.3,1,0.8,1.1,1.5c0.4,1.6,0.4,5.8,0,7.5c-0.1,0.8-0.4,1.1-1.1,1.5C123.5,24.6,115.6,24.6,114.4,24.3z M126.9,7.9
	c-2.4-0.5-11.6-0.6-15.3,0c-2.8,0.5-4.9,2.5-5.6,5.1c-0.5,2.9-0.5,9.3,0,12c0.5,2.4,2.5,4.5,5.6,5.1c3.2,0.6,12.5,0.5,15.4-0.1
	c3.4-0.8,4.8-3.3,5.2-4.9c0.5-2.5,0.5-9,0-12C131.6,10.3,129.3,8.4,126.9,7.9z M95.2,8h6.9v21.9h-6.9V8z M84.1,21.5
	c1.1,0.3,1.4,1.1,1.4,1.9s-0.1,1.6-1.4,1.8c-1.4,0.3-6.1,0.3-7.8,0c-0.8-0.1-1.6-0.1-1.9-1.5v-0.4h-6.9c0,0.1,0,0.5,0.1,1
	c0.3,2.9,1.4,4.9,4.7,5.6c2.7,0.5,12.6,0.6,15.7,0c3.5-0.8,4.4-3.9,4.4-6.7c0-3.2-1.1-5.3-3.9-6.2c-0.8-0.3-2.5-0.4-3.3-0.4
	c-0.6,0-8.1-0.3-9.7-0.5c-1-0.1-1.3-0.8-1.3-1.6c0-0.9,0.1-1.5,1.4-1.8c1.5-0.3,7.5-0.3,8.1,0c0.8,0.3,1,0.8,1,1.4v0.5h6.9
	c0-0.5-0.1-0.9-0.1-1.3c-0.4-3.4-2.3-5.3-5.7-5.6c-3.4-0.4-11.2-0.3-13.6,0.1c-2.3,0.5-4.5,1.9-4.5,6.6c0,3.8,1.8,5.7,4.8,6.3
	c0.9,0.1,3.4,0.3,3.8,0.3C77.1,21.1,83.6,21.4,84.1,21.5z M56.7,21.4H49l3.3-8.7h1.1L56.7,21.4z M58.2,25.9l1.5,3.9h7.5l-9.3-22
	H47.7l-9.2,22H46l1.5-4L58.2,25.9L58.2,25.9z M18.6,22.7c0.1,1.3,0.8,1.5,1.4,1.6c1,0.3,8.2,0.3,9.5,0c0.9-0.1,1.5-0.8,1.6-1.5
	c0-0.4,0.1-1,0.1-1.3h7.2c0,0.5,0,1.8-0.1,2.9c-0.4,2.7-1.9,4.8-5.2,5.6c-2.3,0.5-13.3,0.5-15.8,0c-2.7-0.6-4.9-2.3-5.6-5.1
	c-0.5-2.5-0.5-9.1,0-11.9c0.4-2,2.3-4.4,5.4-5.1c2.9-0.5,13.1-0.6,15.9,0c3.7,0.9,4.8,4.2,4.9,5.3c0.1,1.3,0.1,2.1,0.1,2.7h-7.2
	c0-0.5,0.1-1.9-1.1-2.3c-0.8-0.3-7.8-0.3-9.6-0.1c-0.9,0.1-1.4,0.5-1.5,1.4C18.3,16.7,18.3,21,18.6,22.7z"/>
</svg>
