<?xml version="1.0" encoding="utf-8"?>
<!-- Generator: Adobe Illustrator 22.0.0, SVG Export Plug-In . SVG Version: 6.00 Build 0)  -->
<svg version="1.1" id="svg3358" xmlns:svg="http://www.w3.org/2000/svg"
	 xmlns="http://www.w3.org/2000/svg" xmlns:xlink="http://www.w3.org/1999/xlink" x="0px" y="0px" viewBox="0 0 200 120"
	 style="enable-background:new 0 0 200 120;" xml:space="preserve">
<path id="path268" d="M74,72.8h-6.6v26.1H74V72.8z"/>
<path id="path284" d="M127,80.2c-0.3-0.1-2.4-1.4-5.5-1.4c-4.3,0-7.2,2.9-7.2,7c0,3.9,2.8,7,7.2,7c3.1,0,5.2-1.2,5.5-1.3v7
	c-0.8,0.2-3.1,0.9-6,0.9c-7.4,0-13.9-5.1-13.9-13.5c0-7.8,5.9-13.5,13.9-13.5c3.1,0,5.4,0.8,6,0.9V80.2z"/>
<path id="path284_1_" d="M58.4,80.2c-0.3-0.1-2.4-1.4-5.5-1.4c-4.3,0-7.2,2.9-7.2,7c0,3.9,2.8,7,7.2,7c3.1,0,5.2-1.2,5.5-1.3v7
	c-0.8,0.2-3.1,0.9-6,0.9c-7.4,0-13.9-5.1-13.9-13.5c0-7.8,5.8-13.5,13.9-13.5c3.1,0,5.4,0.8,6,0.9V80.2z"/>
<path id="path288" d="M147.7,78.9c-3.9,0-6.8,3.1-6.8,6.8c0,3.8,2.9,6.8,6.8,6.8c3.9,0,6.8-3.1,6.8-6.8
	C154.5,82,151.6,78.9,147.7,78.9 M161.5,85.7c0,7.4-5.8,13.5-13.8,13.5c-8,0-13.8-6.1-13.8-13.5s5.8-13.5,13.8-13.5
	C155.7,72.2,161.5,78.3,161.5,85.7"/>
<path id="path292" d="M98.9,78.7c-0.1,0-2.8-0.8-5.2-0.8c-2.6,0-4,0.9-4,2.1c0,1.6,1.9,2.2,3,2.5l1.8,0.6c4.3,1.4,6.2,4.3,6.2,7.4
	c0,6.5-5.8,8.8-10.8,8.8c-3.5,0-6.8-0.7-7.1-0.8v-6c0.6,0.1,3.4,1,6.2,1c3.3,0,4.8-1,4.8-2.4c0-1.4-1.3-2.1-2.9-2.6
	c-0.4-0.2-1-0.3-1.4-0.5c-3.7-1.1-6.8-3.3-6.8-7.6c0-4.9,3.7-8.2,9.8-8.2c3.2,0,6.2,0.8,6.4,0.8L98.9,78.7L98.9,78.7z"/>
<g>
	<path id="path296" d="M31.5,44.7c0-1.8-1.5-3.2-3.3-3.2c-1.8,0-3.2,1.4-3.2,3.2v6.8c0,1.8,1.5,3.3,3.3,3.3c1.8,0,3.3-1.4,3.3-3.3
		L31.5,44.7L31.5,44.7z"/>
	<path id="path300" d="M49.4,35.8c0-1.8-1.5-3.2-3.3-3.2c-1.8,0-3.3,1.4-3.3,3.2v15.8c0,1.8,1.5,3.3,3.3,3.3c1.8,0,3.3-1.4,3.3-3.3
		V35.8z"/>
	<path id="path304" d="M67.4,23.5c0-1.8-1.5-3.2-3.3-3.2c-1.8,0-3.3,1.4-3.3,3.2v34.6c0,1.8,1.5,3.3,3.3,3.3c1.8,0,3.3-1.4,3.3-3.3
		V23.5z"/>
	<path id="path308" d="M85.4,35.8c0-1.8-1.5-3.2-3.3-3.2c-1.8,0-3.3,1.4-3.3,3.2v15.8c0,1.8,1.5,3.3,3.3,3.3c1.8,0,3.3-1.4,3.3-3.3
		V35.8z"/>
	<path id="path312" d="M103.2,44.7c0-1.8-1.4-3.2-3.2-3.2s-3.3,1.4-3.3,3.2v6.8c0,1.8,1.5,3.3,3.3,3.3s3.2-1.4,3.2-3.3V44.7z"/>
	<path id="path296_1_" d="M103.3,44.7c0-1.8-1.5-3.2-3.3-3.2s-3.3,1.4-3.3,3.2v6.8c0,1.8,1.5,3.3,3.3,3.3s3.3-1.4,3.3-3.3V44.7z"/>
	<path id="path300_1_" d="M121.2,35.8c0-1.8-1.5-3.2-3.3-3.2c-1.8,0-3.3,1.4-3.3,3.2v15.8c0,1.8,1.5,3.3,3.3,3.3
		c1.8,0,3.3-1.4,3.3-3.3V35.8z"/>
	<path id="path304_1_" d="M139.1,23.5c0-1.8-1.5-3.2-3.3-3.2c-1.8,0-3.3,1.4-3.3,3.2v34.6c0,1.8,1.5,3.3,3.3,3.3
		c1.8,0,3.3-1.4,3.3-3.3V23.5z"/>
	<path id="path308_1_" d="M157.1,35.8c0-1.8-1.5-3.2-3.3-3.2c-1.8,0-3.3,1.4-3.3,3.2v15.8c0,1.8,1.5,3.3,3.3,3.3
		c1.8,0,3.3-1.4,3.3-3.3V35.8z"/>
	<path id="path312_1_" d="M175,44.7c0-1.8-1.4-3.2-3.2-3.2c-1.8,0-3.3,1.4-3.3,3.2v6.8c0,1.8,1.5,3.3,3.3,3.3c1.8,0,3.2-1.4,3.2-3.3
		V44.7z"/>
</g>
<path id="path332" d="M171.2,95.3v0.4H170v3h-0.4v-3h-1.2v-0.4H171.2z"/>
<path id="path336" d="M171.5,95.3h0.8l1,2.8l0,0l1-2.8h0.8v3.4h-0.5v-2.9l0,0l-1.1,2.9H173l-1.1-2.9l0,0v2.9h-0.4V95.3z"/>
</svg>
