<?xml version="1.0" encoding="utf-8"?>
<!-- Generator: Adobe Illustrator 22.0.0, SVG Export Plug-In . SVG Version: 6.00 Build 0)  -->
<svg version="1.1" id="Layer_1" xmlns="http://www.w3.org/2000/svg" xmlns:xlink="http://www.w3.org/1999/xlink" x="0px" y="0px"
	 viewBox="0 0 290 202" style="enable-background:new 0 0 290 202;" xml:space="preserve">
<g>
	<path d="M210,70.1c-6.5,5.7-13.6,11.2-21,16.5c4,0,7,0.1,7,0.1c2,4.8,6.5,18.3,9.9,26.5c0.9,2.2,2.5,2.6,2.5,2.6
		c-6.1-0.1-17.5,0-17.5-0.1c3.1-2.7,2.7-2.7,1.3-6.8h-9.6c-2,4.5,0.6,6.7,0.9,6.7c-1.1,0-3.3,0-5.4,0c3.6,10.6,7.5,30.2-7.6,30.5
		c-3.6,0.1-8.4-1-14.5-3.5l-0.2-0.3c25,10.3,28.1-6.4,20.8-26.7c-1.5,0-2.7,0-2.7,0c0.9-0.6,1.5-1.1,2-1.6
		c-1.8-4.6-4.1-9.3-6.7-13.9c-0.4,0.2-0.7,0.5-1.1,0.7c4.9,4.3,5.2,10-2.6,14c-7.3,3.7-15.4,0.1-15.5,0.1c0,0-2.6,1.7-3.5,2.7l0-2.9
		c-2.3,1.5-4.5,2.9-6.8,4.4c-2.7,1.7-5.4,3.5-8.1,5.3c5,4.8,11.8,7.5,8.9,10.1c-2.7,2.4-8.1-4.6-11-8.7
		c-16,10.8-31.4,22.3-44.2,33.1c14,12.7,32.5,20.6,52.8,20.6c43.1,0,78.5-35.5,78.5-78.5C216.6,90.1,214.2,79.6,210,70.1z
		 M178.1,125.8c0.5,0,0.8,0.3,0.8,0.8c0,0.4-0.3,0.8-0.8,0.8c-0.4,0-0.8-0.3-0.8-0.8C177.3,126.2,177.6,125.8,178.1,125.8z
		 M178,131.2c0.5,0.1,0.8,0.4,0.8,0.8c0,0.4-0.3,0.8-0.8,0.8c-0.4,0-0.8-0.3-0.8-0.8C177.2,131.6,177.5,131.2,178,131.2z
		 M171.9,130.1c0.4,0,0.7,0.4,0.7,0.7s-0.3,0.7-0.7,0.7c-0.3,0-0.7-0.3-0.7-0.7C171.2,130.5,171.5,130.1,171.9,130.1z M171.9,139
		c0.4,0,0.7,0.4,0.7,0.7c0,0.3-0.3,0.7-0.7,0.7c-0.3,0-0.7-0.3-0.7-0.7C171.2,139.4,171.5,139,171.9,139z M107.6,148.5
		c0.2,0,0.6,0.3,0.6,0.7c0,0.3-0.3,0.7-0.6,0.7c-0.3,0-0.7-0.3-0.7-0.7C106.9,148.9,107.2,148.5,107.6,148.5z M110.5,158.6
		c-0.1,0.3-0.3,0.6-0.6,0.7l-0.2,2.2l-0.2-2.1c-0.4-0.1-0.7-0.4-0.8-0.8l-2-0.2l2-0.2c0.1-0.4,0.4-0.7,0.8-0.8l0.2-2l0.2,2.1
		c0.3,0.1,0.5,0.3,0.6,0.6l2.2,0.3L110.5,158.6z M114.6,143.3c0-0.4,0.3-0.8,0.8-0.8c0.4,0,0.7,0.3,0.7,0.8c0,0.4-0.3,0.8-0.7,0.8
		C115,144.1,114.6,143.8,114.6,143.3z M116.3,151.5c-0.4,0-0.7-0.3-0.7-0.7c0-0.3,0.3-0.7,0.7-0.7c0.4,0.1,0.7,0.3,0.7,0.7
		C117,151.1,116.7,151.5,116.3,151.5z M133.8,149.7c-0.3,0-0.7-0.3-0.7-0.7c0-0.3,0.3-0.7,0.7-0.7c0.5,0.1,0.7,0.4,0.7,0.7
		S134.2,149.7,133.8,149.7z M149.1,144.3c-0.3,0-0.7-0.3-0.7-0.7c0-0.3,0.3-0.7,0.7-0.7c0.4,0,0.7,0.4,0.7,0.7
		C149.8,143.9,149.5,144.3,149.1,144.3z M174.9,157.5c-0.3,0-0.7-0.3-0.7-0.7c0-0.3,0.3-0.7,0.7-0.7c0.4,0,0.7,0.4,0.7,0.7
		S175.3,157.5,174.9,157.5z M189.5,125.4c0.4,0,0.7,0.3,0.7,0.8c0,0.4-0.3,0.8-0.7,0.8c-0.4,0-0.8-0.3-0.8-0.8
		C188.7,125.8,189,125.4,189.5,125.4z M190,139c0,0.3-0.3,0.7-0.7,0.7c-0.3,0-0.7-0.3-0.7-0.7c0-0.3,0.3-0.7,0.7-0.7
		C189.7,138.3,190,138.6,190,139z M187.3,122.3c0-0.3,0.3-0.7,0.7-0.7c0.4,0.1,0.7,0.3,0.7,0.7c0,0.3-0.3,0.7-0.7,0.7
		C187.7,123,187.3,122.7,187.3,122.3z M191.9,142.8c-0.1,0.3-0.4,0.6-0.7,0.7l-0.2,2.2l-0.2-2.2c-0.3-0.1-0.6-0.4-0.7-0.7l-2.1-0.2
		l2.1-0.2c0.1-0.3,0.4-0.6,0.7-0.7l0.2-2.1l0.2,2c0.3,0.1,0.6,0.3,0.7,0.7l2,0.2L191.9,142.8z M195.1,143.3c-0.3,0-0.7-0.3-0.7-0.7
		c0-0.3,0.3-0.7,0.7-0.7c0.5,0.1,0.7,0.4,0.7,0.7C195.8,142.9,195.5,143.3,195.1,143.3z M196.5,133c-0.4,0-0.7-0.3-0.7-0.7
		c0-0.3,0.3-0.7,0.7-0.7c0.4,0,0.7,0.4,0.7,0.7S196.9,133,196.5,133z M198.1,126.4l-0.2,2.2l-0.2-2.1c-0.4-0.1-0.7-0.4-0.8-0.8
		l-2-0.2l2-0.2c0.1-0.4,0.4-0.7,0.8-0.8l0.2-2l0.2,2.1c0.3,0.1,0.5,0.4,0.6,0.7l2.1,0.2l-2.2,0.2C198.7,126,198.4,126.3,198.1,126.4
		z M200.5,131.6c-0.4,0-0.8-0.3-0.8-0.8c0-0.4,0.3-0.8,0.8-0.8s0.8,0.4,0.8,0.8S201,131.6,200.5,131.6z"/>
	<path d="M198.8,125.3l-0.6-0.1l-0.1-0.6c-0.1,0-0.2-0.1-0.3-0.1c0,0-0.1,0-0.1,0l-0.1,0.7l-0.7,0.1c0,0.1-0.1,0.1-0.1,0.2
		s0,0.1,0.1,0.2l0.7,0.1l0.1,0.7c0,0,0.1,0,0.1,0c0.1,0,0.2,0,0.3-0.1l0.1-0.6l0.5-0.1c0-0.1,0.1-0.2,0.1-0.2
		C198.8,125.4,198.8,125.3,198.8,125.3z"/>
	<path d="M153.2,37.8l0.7,0.1l0.1,0.7c0,0,0.1,0,0.1,0c0.1,0,0.2,0,0.3-0.1l0.1-0.6l0.5-0.1c0-0.1,0.1-0.2,0.1-0.2
		c0-0.1,0-0.2,0-0.2l-0.6-0.1l-0.1-0.6c-0.1,0-0.2-0.1-0.3-0.1c0,0-0.1,0-0.1,0l-0.1,0.7l-0.7,0.1c0,0.1-0.1,0.1-0.1,0.2
		S153.1,37.7,153.2,37.8z"/>
	<path d="M138.5,116c0.3-0.2,0.6-0.4,0.9-0.6c-6.2,0-14.6,0-14.6-0.1c3.1-2.7,2.7-2.7,1.3-6.8h-7.4c3.7,5,7.5,9.3,10.7,13.5
		C132.8,119.8,135.8,117.8,138.5,116z"/>
	<path d="M120.3,94.9c0.2-0.1,0.5-0.2,0.7-0.2l-0.4-0.9C120.7,93.8,120.6,94.2,120.3,94.9z"/>
	<path d="M117.3,104.7h7.7l-1.1-2.9c-2.1,0.5-4.1,1-6.1,1.5C117.5,104.2,117.3,104.7,117.3,104.7z"/>
	<path d="M192,142.4l-0.7-0.1l-0.1-0.7c-0.1,0-0.1,0-0.2,0c-0.1,0-0.2,0-0.2,0.1l-0.1,0.6l-0.6,0.1c0,0.1-0.1,0.2-0.1,0.2
		c0,0.1,0,0.2,0.1,0.2l0.6,0.1l0.1,0.6c0.1,0,0.2,0.1,0.2,0.1s0.2,0,0.2-0.1l0.1-0.6l0.6-0.1c0-0.1,0.1-0.2,0.1-0.2
		C192,142.5,192,142.4,192,142.4z"/>
	<path d="M127.7,123.1c-3.8-4.5-7.4-9.3-11.1-14.6h-0.1c-2,4.5,0.6,6.7,0.9,6.7c-2.2,0.1-9.6,0-9.6,0c4-2.9,3.8-3.7,3.8-3.7
		c0.6-2.3,1.4-4.8,2.1-7.2c-4.6,1.1-9.2,2.3-13.7,3.4c0,1.1,0,2.2,0,3.3c0,1.3,1,1.9,2.7,4.3H90.3c-0.8-1.3-1.6-2.7-2.6-4.3
		c-2.6,0.7-5.1,1.4-7.5,2.2c0.4,0.5,0.9,1,1.5,1.8c0.3,0,0,0,0,0c0,0,0,0,0,0c-0.4,0-2.1,0-7.3,0.1c-4.4,1.5-8.7,3.1-12.6,4.8
		c3.7,14.6,11.5,27.7,22.2,37.8C99.5,142.4,115.4,131.3,127.7,123.1C127.7,123.1,127.7,123.1,127.7,123.1z M80.9,137.5
		c-0.3,0-0.7-0.3-0.7-0.7c0-0.3,0.3-0.7,0.7-0.7c0.5,0.1,0.7,0.4,0.7,0.7S81.3,137.5,80.9,137.5z M88.5,141.2
		c-0.3,0-0.7-0.3-0.7-0.7c0-0.3,0.3-0.7,0.7-0.7c0.5,0,0.7,0.3,0.7,0.7C89.2,140.8,88.9,141.2,88.5,141.2z M89.6,136.9
		c-0.4,0-0.8-0.3-0.8-0.8c0-0.4,0.3-0.8,0.8-0.8c0.4,0,0.8,0.4,0.8,0.8C90.4,136.5,90.1,136.9,89.6,136.9z M91.7,143.8
		c-0.4,0-0.8-0.3-0.8-0.8c0-0.4,0.3-0.8,0.8-0.8c0.4,0,0.8,0.4,0.8,0.8C92.5,143.4,92.2,143.8,91.7,143.8z M101.9,140.6
		c-0.3,0-0.7-0.3-0.7-0.7c0-0.3,0.3-0.7,0.7-0.7c0.4,0,0.7,0.4,0.7,0.7C102.6,140.2,102.3,140.6,101.9,140.6z M110,116.7
		c0.4,0,0.7,0.4,0.7,0.7c0,0.3-0.3,0.7-0.7,0.7c-0.3,0-0.7-0.3-0.7-0.7C109.3,117.1,109.6,116.7,110,116.7z M110.3,133
		c-0.4,0-0.8-0.3-0.8-0.8c0-0.4,0.3-0.8,0.8-0.8c0.5,0.1,0.8,0.4,0.8,0.8C111.1,132.6,110.8,133,110.3,133z"/>
	<path d="M118.6,61.2l-0.7-0.1l-0.1-0.7c-0.1,0-0.1,0-0.2,0c-0.1,0-0.2,0-0.2,0.1l-0.1,0.6l-0.6,0.1c0,0.1-0.1,0.2-0.1,0.2
		c0,0.1,0,0.2,0.1,0.2l0.6,0.1l0.1,0.6c0.1,0,0.2,0.1,0.2,0.1s0.2,0,0.2-0.1l0.1-0.6l0.6-0.1c0-0.1,0.1-0.2,0.1-0.2
		C118.6,61.3,118.6,61.2,118.6,61.2z"/>
	<path d="M110.5,158.1L110,158l-0.1-0.5c-0.1,0-0.2-0.1-0.3-0.1c0,0-0.1,0-0.1,0l-0.1,0.7l-0.7,0.1c0,0.1-0.1,0.1-0.1,0.2
		s0,0.1,0.1,0.2l0.7,0.1l0.1,0.7c0,0,0.1,0,0.1,0c0.1,0,0.2,0,0.3-0.1l0.1-0.6l0.5-0.1c0-0.1,0.1-0.2,0.1-0.2
		C110.6,158.3,110.6,158.2,110.5,158.1z"/>
	<path d="M79.1,109.4c2-0.8,4.1-1.7,6.2-2.5C82,101.3,78.9,96,79,96.1C79.1,96.2,78.9,103.3,79.1,109.4z"/>
	<path d="M139.3,65c-1.9-1.6-3.7-3-5.3-4.3c-27.6-20.2-44.7-7.9-25.2,31.8c0.9,1.8,1.8,3.6,2.8,5.3c1.5-0.5,2.9-0.9,4.3-1.4
		c0.8-2.7,1.4-5.1,1.7-6.8c0.1-0.4-0.9-1.8-2.3-3.2l-0.1-0.2c7.2,0,14.7,0.1,14.7,0.1c0.5,1.2,1.1,2.9,1.9,4.8
		c8.5-2.8,16.7-5.7,24.8-8.7C150.7,75.4,144.5,69.4,139.3,65z M109.5,60.7c-0.3,0-0.7-0.3-0.7-0.7s0.3-0.7,0.7-0.7
		c0.3,0.1,0.7,0.4,0.7,0.7S109.9,60.7,109.5,60.7z M112.2,64.1c-0.3,0-0.7-0.3-0.7-0.7c0-0.3,0.3-0.7,0.7-0.7
		c0.4,0.1,0.7,0.3,0.7,0.7C112.9,63.7,112.6,64.1,112.2,64.1z M118.5,61.6c-0.1,0.3-0.4,0.6-0.7,0.7l-0.2,2.2l-0.2-2.2
		c-0.3-0.1-0.6-0.4-0.7-0.7l-2.1-0.2l2.1-0.2c0.1-0.3,0.4-0.6,0.7-0.7l0.2-2.1l0.2,2c0.3,0.1,0.6,0.3,0.7,0.7l2,0.2L118.5,61.6z"/>
	<path d="M176.4,111.2c0.2,0.5,0.5,1.1,0.7,1.7c0.7-0.7,0.6-1,0.6-1c1-4,2.3-8.3,3.4-12.2c1-3.6,1.9-7,2.4-9.2
		c-4.3,3-8.8,6-13.2,8.9C172.7,103.5,174.8,107.5,176.4,111.2z"/>
	<path d="M146.1,95.9c-3.8,1.1-7.7,2.2-11.5,3.2c1.7,4.8,3.6,9.9,5.2,13.8c0.3,0.7,0.7,1.2,1,1.6c1.9-1.3,3.8-2.5,5.6-3.7l0-2.9
		c0.7,0.6,1.3,1.2,2,1.6c2.4-1.5,4.7-2.9,7-4.3c-1-0.4-2.1-0.8-3.4-1.3C148.4,102.5,146.3,99.2,146.1,95.9z"/>
	<path d="M75.2,110.8c-0.1-8.7,0-16.1,0-20.9c0-0.8-0.1-0.7-2.5-3.7l0.2-0.3C86.4,86,85,85.9,85.2,86c0.3,0,8,13.3,10.2,17.2
		c0.2-0.1,0.4-0.1,0.6-0.2c0-2.3-0.1-7.4-0.1-13.4c0-0.9-2.6-3.7-2.5-3.7c3.9,0,8.9,0.1,8.9,0.1c-1.9,2.2-2.3,2-2.3,3.4
		c-0.1,2.8-0.1,7.1-0.1,12.3c1.3-0.4,2.7-0.9,4.1-1.4c2.1-0.7,4.1-1.4,6.1-2c-0.7-1.2-1.4-2.4-2.1-3.7c-15-26.8-12.8-54.4,14.3-42.4
		c0.1,0,0.2,0.1,0.3,0.2c-0.2-0.1-0.2-0.2-0.2-0.2c0.5,0.3,1.1,0.5,1.6,0.8c11,5.3,21.7,14.7,30.8,25.2c1.1,1.2,2.1,2.5,3.1,3.7
		c11.6-4.4,23.1-9.3,35.6-15.6c3.3-1.6,7.1-3.7,11.1-6.2c-14.1-22.5-39.1-37.6-66.7-37.6C94.1,22.5,59.5,58,59.5,101
		c0,5.9,0.7,11.6,1.9,17.1c4.4-2.5,8.9-4.8,13.8-7C75.2,110.9,75.2,110.8,75.2,110.8z M154.3,56c-0.4,0-0.8-0.3-0.8-0.8
		c0-0.4,0.3-0.8,0.7-0.8c0.5,0,0.9,0.4,0.9,0.8C155.1,55.6,154.8,56,154.3,56z M153.2,37.4c0.1-0.4,0.4-0.7,0.8-0.8l0.2-2l0.2,2.1
		c0.3,0.1,0.6,0.4,0.6,0.7l2.1,0.2l-2.2,0.2c-0.1,0.3-0.3,0.6-0.6,0.7l-0.2,2.2l-0.2-2.1c-0.4-0.1-0.7-0.4-0.8-0.8l-2-0.2
		L153.2,37.4z M142.8,49.1c-0.3,0-0.7-0.3-0.7-0.7c0-0.3,0.3-0.7,0.7-0.7c0.4,0.1,0.7,0.4,0.7,0.7C143.5,48.7,143.2,49.1,142.8,49.1
		z M142.8,38.5c0.5,0.1,0.8,0.4,0.8,0.8c0,0.4-0.3,0.8-0.8,0.8c-0.4,0-0.8-0.3-0.8-0.8C142,38.9,142.3,38.5,142.8,38.5z M138.4,29
		c0.5,0,0.7,0.3,0.7,0.7c0,0.3-0.3,0.7-0.7,0.7c-0.3,0-0.7-0.3-0.7-0.7C137.7,29.4,138,29,138.4,29z M135.9,44.1
		c0.4,0.1,0.7,0.3,0.7,0.7c0,0.3-0.3,0.7-0.7,0.7c-0.3,0-0.7-0.3-0.7-0.7C135.2,44.5,135.5,44.1,135.9,44.1z M133.7,37.4
		c0.5,0,0.8,0.4,0.8,0.8c0,0.4-0.3,0.8-0.8,0.8c-0.4,0-0.8-0.3-0.8-0.8C132.9,37.8,133.2,37.4,133.7,37.4z M127.2,46.5
		c0.3,0,0.7,0.3,0.7,0.7c0,0.3-0.3,0.7-0.7,0.7c-0.3,0-0.7-0.3-0.7-0.7C126.5,46.9,126.8,46.5,127.2,46.5z M125.2,45.2
		c0.5,0,0.7,0.3,0.7,0.7c0,0.3-0.3,0.7-0.7,0.7c-0.3,0-0.7-0.3-0.7-0.7C124.5,45.6,124.8,45.2,125.2,45.2z M125,49.6
		c0,0.3-0.3,0.7-0.7,0.7c-0.3,0-0.7-0.3-0.7-0.7c0-0.3,0.3-0.7,0.7-0.7C124.7,49,125,49.2,125,49.6z M123.4,43.9
		c0.4,0.1,0.7,0.3,0.7,0.7c0,0.3-0.3,0.7-0.7,0.7c-0.3,0-0.7-0.3-0.7-0.7C122.7,44.3,123,43.9,123.4,43.9z"/>
	<path d="M190.9,105.2l-4.3-10.9c0,0-0.9,2.7-1.7,5.4h0.1c-0.9,2.7-1.7,5.5-1.7,5.5H190.9z"/>
	<path d="M161.7,110.5c0.7-1.8,0-2.7-2.6-3.8c-2.4,1.6-4.9,3.1-7.3,4.7C157.1,113.3,161.4,111.2,161.7,110.5z"/>
	<path d="M201.3,72.3c-10,6.6-21.1,11.8-32.6,16.2c0,1.1,0,2.7,0,4.8l-0.2,0.2c-1.2-0.9-2.3-1.6-3.4-2.1c1.3,1.8,2.5,3.6,3.6,5.4
		c4.2-2.7,8.5-5.7,13.3-9.2c-0.2-0.2-0.5-0.5-0.7-0.8l-0.1-0.2c0.7,0,1.4,0,2.1,0C188.6,82.6,194.5,78,201.3,72.3z"/>
	<path d="M163,90.6C162.9,90.6,162.9,90.6,163,90.6c-2.7,0.9-5.4,1.8-8,2.6c0.3,1,1.6,2.1,4.2,2.9c2.4,0.7,4.5,1.7,6.4,2.8
		c0.7-0.5,1.4-0.9,2.2-1.4c-0.6-1-1.3-2-1.9-3C164.8,93.2,163.9,91.9,163,90.6z"/>
</g>
<g>
	<path d="M235.6,35.7c-7.8,8.7-20.2,17.7-31,24.2c2.1,3.3,3.9,6.7,5.4,10.2c14-12.3,25-25.5,29.9-40.2L235.6,35.7z"/>
	<path d="M61.4,118C61.4,118,61.4,118,61.4,118c-4.3,2.1-8.1,4.2-11.4,6.2l2,0.7c2.9-1.7,6.2-3.6,9.8-5.2
		C61.7,119.2,61.5,118.6,61.4,118z"/>
	<path d="M84.1,157.7c-3.9,3.4-8,7.1-12.1,10.9l-0.2,2.7c3.7-3.9,8.3-8,13.5-12.3C84.9,158.6,84.5,158.1,84.1,157.7z"/>
</g>
</svg>
