<?xml version="1.0" encoding="utf-8"?>
<!-- Generator: Adobe Illustrator 22.0.0, SVG Export Plug-In . SVG Version: 6.00 Build 0)  -->
<svg version="1.1" id="Logo" xmlns="http://www.w3.org/2000/svg" xmlns:xlink="http://www.w3.org/1999/xlink" x="0px" y="0px"
	 viewBox="0 0 247.2 211.9" style="enable-background:new 0 0 247.2 211.9;" xml:space="preserve">
<style type="text/css">
	.st0{fill:none;}
</style>
<g>
	<rect x="-181.4" y="-77.5" class="st0" width="610.5" height="386.6"/>
	<g>
		<g>
			<path d="M24.5,127.5H8.1v28.4h5.7v-11h10.7c9.3,0,11.3-4.7,11.3-8.7C35.8,132.2,33.8,127.5,24.5,127.5z M13.8,132.8h9.9
				c6,0,6.5,1.6,6.5,3.4c0,1.8-0.5,3.3-6.5,3.3h-9.9V132.8z"/>
			<path d="M65.2,143.9c0,4.9-2.9,7.3-8.9,7.3c-6,0-8.9-2.4-8.9-7.3v-16.5h-5.7v16.5c0,8.1,5.2,12.6,14.6,12.6
				c9.4,0,14.6-4.5,14.6-12.6v-16.5h-5.7V143.9z"/>
			<path d="M104.4,140.9c1.3-1,2.6-2.6,2.6-5.4c0-8-8.5-8-11.3-8H79.4v28.4h14.5c4.5,0,13.9,0,13.9-8.5
				C107.8,143.9,106,142,104.4,140.9z M93.7,132.7c5.6,0,7.5,0.4,7.5,2.9c0,0.8,0,2.9-6.4,2.9h-9.7v-5.8H93.7z M95.9,150.5H85.1
				v-6.8h11.2c5.8,0,5.8,2.5,5.8,3.5C102,149.2,101,150.5,95.9,150.5z"/>
			<polygon points="121.8,127.5 116.1,127.5 116.1,155.9 141.4,155.9 141.4,150.5 121.8,150.5 			"/>
			<rect x="147" y="127.5" width="5.7" height="28.4"/>
			<path d="M185.5,145.7c-2,3.6-5.1,5.4-9.7,5.4c-6.6,0-10.5-3.4-10.5-9c0-6.6,3.5-10.1,10.2-10.1c4.9,0,8.1,1.8,9.6,5.2l0.5,1.2
				l5.1-2.3l-0.5-1.2c-2.2-5.1-7.7-8.2-14.7-8.2c-9.9,0-16,5.7-16,14.9c0,7.1,4.2,14.8,16,14.8c7.2,0,12.2-2.7,15-8.2l0.6-1.2
				l-5.1-2.5L185.5,145.7z"/>
			<rect x="197.8" y="127.5" width="5.7" height="28.4"/>
			<path d="M226,138.5c-5.2-0.5-8.4-0.9-8.4-3.1c0-2.9,4.7-3.3,7.5-3.3c6.1,0,8.3,2.6,9.4,3.9l1,1.1l4.2-3.4l-0.7-1
				c-1-1.4-4.9-5.8-13.8-5.8c-11.7,0-13.4,5.7-13.4,9c0,6.8,7.6,7.5,13.6,8.1c5.4,0.5,8.9,1,8.9,3.3c0,3.7-7.3,3.9-8.1,3.9
				c-7.1,0-9.3-2.9-10.7-4.7l-0.8-1.1l-3.5,3l-1,0.9l0.9,1c2.3,2.5,5.7,6.4,14.7,6.4c6.6,0,14.3-2.4,14.3-9.2
				C240,139.7,232.2,139,226,138.5z"/>
			<path d="M87.6,175.4c-9.8,0-16.4,6-16.4,15c0,10.1,8.5,14.7,16.4,14.7c7.9,0,16.4-4.6,16.4-14.7
				C104.1,181.4,97.5,175.4,87.6,175.4z M87.6,199.7c-2.5,0-10.6-0.7-10.6-9.9c0-5.4,4.4-9.2,10.6-9.2c6.3,0,10.6,3.8,10.6,9.2
				C98.3,199,90.1,199.7,87.6,199.7z"/>
			<polygon points="134.6,195.2 117.2,176.1 110.9,176.1 110.9,204.5 116.5,204.5 116.5,183.5 135.3,204.5 140.3,204.5 140.3,176.1 
				134.6,176.1 			"/>
			<polygon points="154.6,192.4 171.2,192.4 171.2,187.1 154.6,187.1 154.6,181.4 174.5,181.4 174.5,176.1 148.9,176.1 148.9,204.5 
				174.9,204.5 174.9,199.1 154.6,199.1 			"/>
		</g>
		<g>
			<g>
				<path d="M182,112.2l-13-7.7c2.6,0.3,4.9-0.8,7-2.4l4,4.8l-2.4-6c2.6-2.1,4.8-4.3,7.5-4.4c7.4-0.2,2.2,8.7,4.9,8.7
					c3,0,6.3-9.8-0.9-14.2c-7.5-4.5-14,2-19.3,0.9l19.8-8.8h-28.9l-1-1.9c5.2,2.4,9,0.2,11.5-2.3l8.2,1.2l-6.8-2.7
					c1.6-1.7,3-3,4.7-2.4c2.4,0.9,3.9,3.1,8.1,3.1c7.2,0.1,12.4-12.6,2.9-18.2c0.7,9.1-3.5,9.5-10.8,4.7l2.5-4.1L176,64
					c-7-3.1-10.5,3.1-13.4,5.1c-3,2-5.7-2-9.3,2.8c5.4-1.8,8.1,3.4,11.6,0c-1.5,9.1-6.7-2.8-11.9,1.8c4.5,0.3,6.9,4.4,10.5,4.4
					c6.6,0,0.7-12.7,10-12.7l-1.5-1c5.3-0.5,5.6,4.8,13.5,4.9c0.8,1.2-2.1,1.3-4.1,0.6c-0.3,1.7,10.8,5.5,8.1-7.2
					c3.5,1.9,2.8,9.9-0.5,12.9c-0.6,0.6-1.2,0.9-1.6,0.3c-0.9-1.4,1.4-1.3,2.1-3.4c-2.5,2.2-6.8,2-9.7-0.7c-2.9-2.7-7.3-6-9.1-0.3
					c-1.9,5.7-3.4,8.3-6.8,8.4c-4.7,0.1-9.7-7.8-14.9-3.5c10,0.9,12.4,16.8,21.2,17c6.8,0,8.4-3,12.8-3c4.5,0,9.1,2.4,9.1,8.2
					c0,3.5-1.9,5.5-1.9,5.5s1.4-2.9,0.7-6.5c-0.7-3.5-3.7-5.6-7.6-5.6c-5.5,0-9.9,9-16,9c-12.2,0-15.4-23.6-28.2-20
					c9.4,6.4,10.5,16.5,15.5,20.4c5.1,4,11.3,2.3,14.6,5.3c1.4,1.2,2,3.3,2.4,5.5h-1.2c-0.4-1.1-1-2.2-2-3.1
					c-2.9-3.1-11.7-1.7-15.8-6.1c-4-4.4-7-17.5-15-19.5c6.9,4.5,8.5,15.9,13.5,21.6c5,5.6,11.5,2.6,14.5,5.6c0.5,0.5,1,1,1.4,1.5
					h-5.7c-0.5-0.1-1-0.2-1.6-0.2c-0.9,0-1.9,0.1-2.8,0.2h-7.9c-1-0.3-2-0.9-2.8-1.7c-3.9-4.2-3.6-8.5-3.3-13.7
					c0.8,4.9,1.7,16,10,14.8c-10.5-3.6-4.4-21.6-17.2-26.2c-1.4-0.5-0.9-5,2.6-5.7c-6.9,1.3-6.9-1.2-2-6.3c-3,1.9-6.3,1.4-7,3.5
					c0,0,5.7,8.9,5.7,10.7c0,1.7-3.7,8.8-4.2,9c-1.4,0.8-6,0.8-7.1,0.4c-1.2-0.4-2.6-4.2-2.1-5.4c0.9-1.9,7.9-3.4,8-6.1
					c0.1-2.2-2.8-2.4-2.7-1.2c1.7,0.6,2.4,3.1-2.5,4.2l1.1-1.8c0,0-3.7,2.9-3.9,3.1c-0.2,0.1-1,0.2-1.6,0c-0.5-0.2-5.9-2.7-5-5.3
					c0,0,1.6,0.7,5.6,0.7c4,0,4.4-1.8,4.4-1.8s-2.2,0.5-4.4,0.5c-2.2,0-4.4-0.5-4.4-0.5c-1.7-0.4,0.1-2.6,0.7-2.6c0,0,3.9,0,4.2,0
					c0.3,0,0.6-0.6,0-0.6c-0.4,0-3.1-0.1-3.3-0.7c-0.4-1.1-1.1-8.1-1.1-8.1s0.9-2.2,0.2-2.9c-0.7-0.7-1.1-0.3-1.1-0.3
					c1.7,9.7-5.7,15.8-10,14.6l-0.5-0.1c1,0.7,2.2,1.4,3.8,1.9c-8,1.7-11.2-3.2-12.5-6.1c-0.7,0.4-0.7,2.2-0.6,3.4
					c-1.7-1.8-2.6-4.6-1.1-6.6c-2,1-2.1,1.3-2.1,1.3c0.1-1.7,3-2.8,4.5-4.7c1.5-1.9,1.2-4.9-2-6.2c0.2,3-1.3,5.1-4.3,6.1
					c-2.9,1-2.4-1.7-5.2-1.1c4.5,1,4.2,7.2,8.7,9.7c-5.9-1.4-7-9.5-14.2-8.7c4.2-5.9,10.7-0.8,13.5-4.9c-7,1.6-11.8-4.3-12.7-10.9
					c-1.2-10-9.7-5.1-9.5-10c4.2,1.9,13.6-5.4,16.4,2.9c2.9,8.7,8.8,12.2,14,8.2l-23-23.3l2.9,9.8c-6,1.2-13.3-2.4-9.3-10.8
					c-5.7-2.6-13.2,6.8-6.3,14.2c3.2,3.4,11,2.2,13.1,9.1l-7.5-0.6l7.7,2l2.3,6.8l-17.8-8.8l11,12.8c-6.4,3.4-8-6.3-16.3-6.1
					c-5.8,0.1-12.3,6.1-9.6,13.1c8.7-5.3,11.5-1.5,15.2,2.1l-5.3,2.9l6.3-1.9c2.2,2.1,5,3.8,9.6,3.5c7.5-0.6,14.1-3,15.8-0.9
					c1.3,1.5-0.2,2.5-2.9,2.5H52.2l14.4,7.7c-1.4,1.1-5.4,6-8.2,6c-2.8,0-9-4.3-10.6,3.2c6.4-1.1,9.6,12.9,23.1,1.7l-6.3,10.4H35
					v3.6h177.5v-3.6H182z M174.9,70c3.3,1.4-6.9,11.4-10,11C171.4,79.1,171.6,68.6,174.9,70z M176.3,99.4c2.3-6.1,9.6-8.8,12.5-3.4
					c0.1,0.3-0.1,0.5-0.6,0c-3.7-3.7-8.5-0.2-11.5,3.7C176.2,100.2,176.1,99.8,176.3,99.4z M71.5,33.5c-1.9,3.3-1.5,9.3,6,11.1
					C64.8,47.4,65.2,33,71.5,33.5z M61.2,72.6c-5.8-3.2-11,0.6-11,0.6C52,67.4,62.8,67,61.2,72.6z M63.8,70.3
					c-0.9-1.2-1.6-2.2-2.6-2.5c-1.2-0.4-2.6-0.4-3.8-0.3c-1.5,0.1-2.8,0.1-3.2-0.8c-0.3-0.6,0-1.2,0.8-1.8c0.8-0.6,2-1,3.1-1
					c1.3-0.1,2.5,0.2,3.2,0.9c0.7,0.7,1,0.7,1.2,0.6c0.2-0.1,0.1-0.5,0.1-0.8c0-0.2-0.1-0.4,0.1-0.4c2.1,0.3,3.1,1.6,4.2,2.9
					c1.8,2.1,4.5,5.4,11.2,4.3C76.4,77.4,66.8,75.6,63.8,70.3z M69.2,78.4c-0.4-2.6,12.7-4.5,12.8-0.8
					C82.1,80.9,69.6,81.3,69.2,78.4z M136.6,94.5c-4.3,9.3,6.3,15.1,8.3,17c0.2,0.2,0.5,0.5,0.7,0.8H142c-1.1-2.2-2.2-3.9-3.4-4.5
					c0.9,1.3,1.5,2.8,2.1,4.5h-1.7C136.5,107.3,132.3,103.6,136.6,94.5z M135.5,112.2H134l-1.8-5.1
					C133.6,107.9,134.6,109.8,135.5,112.2z M131.2,112.2h-1.7c0.7-2.8,1.1-5.8-0.7-9.3C131.6,105.2,131.6,108.7,131.2,112.2z
					 M128.2,112.2h-1.5c0.7-2.2,0.8-4.5-1-7.8C128.4,106.7,128.6,109.5,128.2,112.2z M117.1,112.2c0.9-3.8-0.7-5-4-8.5
					c4.9,3.4,6.6,5.7,6.3,8.5H117.1z M121.1,105.5c2.4,2.8,3.1,4.9,3.2,6.7h-1.5C122.9,110.4,122.5,108.3,121.1,105.5z M120.8,98.9
					c2.1,0,6.2-0.1,6.3-0.1c0.6,0,0.7,0.2,0.7,0.3c0,0.2-0.3,1.3-0.7,1.4c0,0-4,0.9-6.3,0.8c-2.3,0.1-6.3-0.8-6.3-0.8
					c-0.4-0.1-0.7-1.2-0.7-1.4c0-0.1,0.1-0.3,0.7-0.3C114.5,98.8,118.7,98.9,120.8,98.9z M114.7,84.2c-1.7,0.6-2,3.4,3,4.5
					c-1.6,0.2-5.6-0.5-5.8-3.3C111.8,83.3,114.7,83.1,114.7,84.2z M109.8,89c4.7,0.3,9.6,2.6,9.6,2.6c0.6,1.2-0.8,5-2.1,5.4
					c-1.1,0.3-6.8-0.2-7.6-2.6c3.4,0.9,3.6-0.4,3.6-0.4s-3.1,0-4.3-2.1c2.4,0.9,3.6,0,3.6,0s-4.7-1.8-4.8-2.9H109.8z M105.1,94.2
					l0.1-0.9c0.3,11.2,8.4,12.9,8.4,18.5c0,0.2,0,0.3,0,0.5h-1.4c0.1-1-0.1-2-0.9-3c-5.3-7-5.5-8.6-5.5-8.6c0.5,5.3,3.9,6,4.7,11.6
					h-2.2C107.5,108.1,103.3,106.5,105.1,94.2z M105.6,112.2h-3.9l2.1-3.3C104.8,110.2,105.4,111.3,105.6,112.2z M99.3,112.2h-2.6
					c3.8-7.1,1.7-18.7,5-22.3C99.4,94.1,103,104.1,99.3,112.2z M100.3,85.4c-1.6,1.4-8.7,7.7-6.5,24.7c2.3-3.7,0.3-17.7,7-22.7
					c-4.7,5.7-2.2,15.8-5.6,24.9H92C92.9,104.9,88.8,93.8,100.3,85.4z M87.2,112.2h-1.5c1.1-1.5,1.9-3.4,2.8-5.4
					C88.5,108.1,88.2,110.2,87.2,112.2z M94.5,82.8c1.4,1.5-7.2,5.4-11.4,3.9C90.2,86.8,93.1,81.3,94.5,82.8z M84.8,88.4
					c4.8,0,7.7-1.6,8.9-2.8c-0.5,3.5-4.2,4.7-8.9,4.7c-4.7,0-9-5.2-12.6-1.7c6.3-0.7,7.2,5.9,14.3,3.7c-6.1,6.6-10.6-5-17.7-1.7
					C72.4,82,80,88.4,84.8,88.4z M49.8,99.1c3.7-5.4,6.5,2,12.6-2.1c2,3.2-2.9,5.2-5.8,3.4C53.7,98.6,51.3,98.5,49.8,99.1z
					 M67.6,102.9c-2.7,2.1-9.6,4.2-9.5-0.3c7.1,1.4,8.8-8.8,15.1-5.8C71.7,97.2,70.3,100.9,67.6,102.9z M87.6,100.7
					c0,3.8-0.5,6.6-1.4,8.7l-10.3,2.9h-9.2L87.6,100.7z"/>
				<path d="M126.7,58.2c-5,0.5-4.2,7.3-0.4,7.3c3.7,0,4.3-1.7,7.1-1.7c2.8,0,3.8,1.9,6.1,1.9c2.2,0,3.6-1.6,2.6-3.1
					c-1.5,2.4-4.1-0.9-6-0.9c-2.9,0-4.2,1.2-6.1,2.2c-2.1,1.1-4.2,0.1-3.4-1.2C124.9,62.6,123.8,60.6,126.7,58.2z"/>
				<path d="M144.7,37.5c-4.8,7.1,1.6,14.5-8.5,17c12,0.1,5.8-10.1,10.1-16c4.4-5.9,9.3-3.7,10.9-10.5
					C154.7,33.6,147.4,33.4,144.7,37.5z"/>
				<path d="M130.9,51.1c-2.7-2.7-1.5-7.5-1.5-7.5S125.1,49,130.9,51.1z"/>
				<path d="M147.9,39.9c-3.9,5.7,0.6,14-7.5,16.4c10.2,0.3,5.3-11.5,9-15.6c3.2-4.7,6.2-3.9,7.7-8.9
					C154.9,35.8,150.1,36.6,147.9,39.9z"/>
				<path d="M162.2,57.5c-8.4-3.4-13.4,4.5-13.4,6.9c2-1,5.4-4.6,6.6-5.5C157.7,57.4,161.3,58.3,162.2,57.5z"/>
				<path d="M142.4,69.9c0.6,1.4,3.1-1.7,6.9-0.5C147.5,68.2,142.1,68.2,142.4,69.9z"/>
				<path d="M170.2,53.2c-1.8,8.2-17.3,2.1-17.1,13.9C156.3,61.3,171.5,61.8,170.2,53.2z"/>
				<path d="M139.6,73.8c0.3,1.8,3.4-1.9,9.3,0.6C146.9,71.5,139.1,71.2,139.6,73.8z"/>
				<path d="M127.5,51c-6-9.8,8.1-12.1,4.1-20.2C132,37.2,118.5,43.7,127.5,51z"/>
				<path d="M129,89.2c-0.8,0.6-2.7,1.1-4.2,2.1c-0.2,0.3-0.4,1.2-0.7,1.4C125.5,93.1,128.8,90.8,129,89.2z"/>
				<path d="M109.7,66.4c-2.3-0.5-5.1,1.9-7.8,3.1c2.5,3.7,8.4,4,10.8,5.3C113.2,74,115,67.5,109.7,66.4z M107,72.4
					c-2.4-0.9-1.4-5.6,1.8-4.9C108.6,67.9,107.1,70.7,107,72.4z M108.8,72.9c1.1-1.1,1.8-3.9,2-4.3
					C113.1,70.4,110.8,73.7,108.8,72.9z"/>
				<path d="M118.2,62.7c-2.6,3-4.4-0.3-7.6-0.3c-2.8,0-6,3.1-6.6,1.1c-0.4-1.6,2.4-4.2,6.2-4.5c-3.2-0.9-8.4,2.1-9.4,5.3
					c-1,0.1-1.9-0.2-1.9-0.2c1.3,5.5,6.9-0.1,9.5-0.1C110.7,64,118,69.3,118.2,62.7z"/>
				<path d="M117.4,29.2l2.8,7.3c0,0-2.5,3-2.5,8.3c0,10.4,8.5,11.3,7.9,7.2c-6,2.7-6.3-5.9-4.6-7.7c0,0-1.1,4.5,2.9,6.2
					c-5.3-8.8,5.2-12.2,5.2-19.2c0-5.9-3.6-7.8-3.5-13.2c0.1-6.5,9.6-8.2,9.7-5.7c0.1,1.8-6.9,2-7,8.7c-0.1,6.3,6.9,7.8,6.7,13.9
					c-0.1,4-7.3,7.7-2.8,15.2l10.2-28.7l-7.8,8.8c-2.5-3.1-4.4-3.4-4.4-9c0-5.6,6.2-6.4,6.2-9c0-2.1-3.1-2.4-5.4-2.5
					c-3.5-0.2-9.7,2.9-9.7,9.4c0,6.5,4.4,9.8,0,15.9L117.4,29.2z M126.6,27.8c2.8,8.8-6.4,11.1-7.1,16.9
					C118.9,37.7,127.7,34.4,126.6,27.8z"/>
				<path d="M110.8,75.8c-1.4-1-6.6-0.8-9.4-3.8c0,0-0.2,0.6,0.1,1.1c-3.5,1.4-2.5,4.8-2.5,4.8s2.3-2.8,3.8-2.8c0,0-0.3,2.3,0.3,3.3
					l0.3,0.5C102.1,74.3,110.8,75.8,110.8,75.8z"/>
				<path d="M84.7,35l6.4,3.1c0.2,2.2,1.1,4.5,3.3,7.1c2.5,2.9,9.2,3.8,9.5,10.6c2.1-2.1,0.4-6.9-4.1-9.6
					C82.7,36.1,111.5,20.3,93,14.6c16-1.1,9.2,13.4,10.5,19.2c1.8,8,9.2,6.1,13.1,11.1l-4.4-24.4l-4.1,17c-5.5-0.8-3.5-8.6-3.4-15.6
					c0.3-13.3-22.5-9.5-19.4-2c1.2,2.8,8.9-3.5,8.9,3.2c0,4.6-2.8,8.6-3.1,13L84.7,35z M86.9,19c-1.6-1.9,6.1-4,7.5,0.7
					C90.6,17.2,87.6,19.9,86.9,19z"/>
				<path d="M100.5,32.9c-7.6,14.3,18.6,7.8,15.2,20C121.2,39.7,97.7,47,100.5,32.9z"/>
				<path d="M168.3,98.5c4.3-0.1,7.8-4.4,10.2-6c-3.5,0.8-5.4,4-10.2,4.1c-8,0.2-12.1-22.4-25.7-17.8
					C156.6,79.9,156.3,98.7,168.3,98.5z"/>
				<path d="M109.9,51.4c-0.4,0-0.7-0.1-1.1-0.3c-1.8-1.1-2.8-4.2-4.6-3.9c1.1,0.8,0.6,3.7,2.1,5.4c0.7,0.8,1.7,1.3,2.9,1.3
					c2.2,0,3.9-1.7,3.9-3.9c0-1.2-0.6-2.4-1.5-3.1c-1.4-1.1-3.3-1.8-9-3.7c-13.5-4.6,6.7-18.3-2.6-26c5.1,11.1-9.8,17.6-2.1,25.4
					c3.4,3.5,10.8,3,13.3,5.5c0.4,0.4,0.6,0.9,0.6,1.4C111.9,50.5,111,51.4,109.9,51.4z"/>
				<path d="M98.2,59.6c-2.4-0.1-6.4-1.2-7.7-4.5C89.2,58.1,93.1,66.1,98.2,59.6z"/>
				<path d="M130.2,91.4c-0.2,0.4-1.2,0.8-3.5,1.7c-0.3,0.5-1,1.3-1.7,1.7C127.7,95.5,130.6,92.8,130.2,91.4z"/>
				<path d="M141.5,67.6c0.6,0.9,1.4-0.8,2.9-1.7C142.4,65.7,141.2,67.1,141.5,67.6z"/>
				<path d="M139.8,68.8c-2.7-1.2-5.5-3.6-7.8-3.1c-5.3,1.1-3.5,7.6-3,8.4C131.4,72.8,137.3,72.5,139.8,68.8z M134.7,71.5
					c0,0-1.6-4.5-1.8-4.9C136.1,66,137.1,70.6,134.7,71.5z M130.9,67.8c0.2,0.4,0.9,3.2,2,4.3C130.9,72.9,128.6,69.6,130.9,67.8z"/>
				<path d="M151.5,53c-2.4,2.6-2.2,4.8-5.8,7.1c4.7,2,4.8-4.2,9.4-5.5c3.2-0.9,5.6,2.9,10.1,0.8c4.6-2.1,2.9-10.5,5.1-14.2
					c2.2-3.7,8.3-7.2,12.6,0.3c0,0-7.3-7.2-10.7,1.4c2.4-2,5.9-2.6,5.9-0.7c-1.9,0.6-4.9,1.7-5,8.4c-0.1,7.8-3.3,9.5-5.7,11.1
					c-3.5,2.3-11.7,2.2-13.6,7.5l28.5-12.7h-8.7c1.1-6.4-1.3-15.9,10.6-13.7c1.5-3.2-8.4-13.3-17.1-1.7l-0.8-2.9
					C164.7,53.6,156.5,47.6,151.5,53z M166.6,45.3c1.5,2.5-2.9,7.1-2.9,7.1c1.1,0.4,1.1,2.1-0.3,2.5c-2.6,0.8-4.6-2.1-7.9-1.3
					C156.1,52.4,163,52.6,166.6,45.3z"/>
				<path d="M96.2,63.5c-12,0.2-3.2-13-12.1-14.9c4.6,3.1,2.1,5.9,2.1,10.9C86.2,65.6,93.5,67.4,96.2,63.5z"/>
				<path d="M138.2,45.7c-1.4,3.8-5.2,4.8-7.1,8.1c1.1,0,6.6-1.2,8.7-4.7c2-3.4,0-13.2,6.4-15.6c6.7-2.5,13.7-6.2,5.8-14.3
					c12.1,3.1,5.3,16,3.9,17.9c-1.4,1.8-5.8,5.3-5.8,11c0,4.2-3.8,9-6.7,9.6c3.1,1.3,7.8-5.9,7.8-5.9l15.1-19.6l-8.7,4.5
					c0,0,2.4-2.1,2.4-8.9c0-9.6-10.4-11.4-10.3-8.4c0.1,2,3.5,3.4,3.6,6.7c0.1,3.3-4.5,5.1-8.1,6.2l-1.6-5.4V33
					C137.7,36,139.7,41.8,138.2,45.7z"/>
			</g>
		</g>
	</g>
</g>
</svg>
